<svg width="252" height="145" viewBox="0 0 252 145" fill="none" xmlns="http://www.w3.org/2000/svg">
<path d="M25.3506 2.77985C27.4418 2.77985 35.3178 1.73835 35.9999 3.80335M51.2131 2.77984C54.5411 2.40668 57.9061 2.26809 61.3553 2.26809M76.0614 2.26809H84.1752M97.36 3.80334C100.993 3.80334 106.315 4.9143 109.531 3.29158M128.801 2.26808C131.919 2.26808 136.215 1.40342 138.943 2.77984M156.692 2.26809H166.834M178.497 2.26809H186.611M199.289 2.26809H210.446M220.588 4.31508C220.729 5.45911 228.648 4.82683 230.223 4.82683M236.815 4.31508C238.621 4.31508 243.388 6.1416 244.309 7.89735C245.371 9.92084 247.465 12.0912 247.465 14.5501M249.493 24.2735V31.9498M250 42.6965C250 46.04 248.986 49.0615 248.986 52.4198M250 64.1901V69.8194M248.479 80.0545V88.7543M248.479 97.9658C247.744 98.0585 247.972 98.9265 247.972 99.501M248.479 116.389C248.479 120.253 247.363 123.452 246.45 127.136M245.436 137.371C245.436 134.681 241.811 139.074 241.154 139.617C240.002 140.568 239.045 140.441 237.576 140.441H229.716M205.882 141.976H213.488M180.526 142.488H189.654M162.27 140.441H170.384M142.493 141.465H146.55M125.758 140.953H126.772M90.7677 140.953H104.46M66.4263 141.465H78.597M46.649 141.465H52.2272M23.322 141.976H27.886M10.1372 143C8.2371 142.574 5.98343 139.787 5.06614 138.167C4.06307 136.395 5.14989 134.385 3.54481 132.765M2.53053 116.901V122.018M3.54481 91.8248V97.4541M4.559 70.3312C4.559 65.6009 3.93765 61.5667 3.03767 57.0256M2.53053 32.9732V41.673M2.02338 19.1559V18.6442M2.02345 18.1324C2.02345 14.2663 1.60774 10.3704 4.27727 7.18659C6.31423 4.75723 10.6294 3.29158 13.687 3.29158M125.342 66.5049C125.342 68.5183 126.129 70.4465 126.129 72.4001C126.129 73.2797 125.89 74.5645 126.325 75.3477C126.468 75.6048 126.511 76.6015 126.522 77.1231M126.522 77.1231C126.529 77.4835 126.522 77.617 126.522 77.1231ZM126.522 77.1231C126.522 77.1208 126.522 77.1185 126.522 77.1162M119.84 73.5791C121.563 73.5791 130.089 72.8548 130.452 73.5791M125.392 60.8669C122.71 60.8669 120.254 60.7936 117.924 61.9586C116.39 62.7259 116.127 64.0441 115.479 65.5831C114.068 68.9349 113.245 74.1286 114.868 77.3734C117.226 82.09 125.893 85.2736 130.806 83.7489C134.429 82.6248 136.595 78.6041 137.575 75.1464C139.275 69.1448 135.966 66.0783 130.894 63.225" stroke="#1E1E1E" stroke-width="3" stroke-linecap="round"/>
</svg>
