<svg width="320" height="460" viewBox="0 0 320 460" fill="none" preserveAspectRatio="none"  xmlns="http://www.w3.org/2000/svg">
<path d="M32.8892 3.20787C36.0633 3.20787 39.1686 2.34827 42.4612 2.34827" stroke="#1E1E1E" stroke-width="4" stroke-linecap="round"/>
<path d="M60.6483 5.78746C64.081 5.78746 67.4054 4.92786 71.1776 4.92786" stroke="#1E1E1E" stroke-width="4" stroke-linecap="round"/>
<path d="M85.5356 5.78748H94.1505" stroke="#1E1E1E" stroke-width="4" stroke-linecap="round"/>
<path d="M111.38 5.78748C111.709 8.14965 122.603 5.78748 124.781 5.78748" stroke="#1E1E1E" stroke-width="4" stroke-linecap="round"/>
<path d="M150.626 4.06748C156.053 4.06748 161.789 4.73745 166.898 3.20789" stroke="#1E1E1E" stroke-width="4" stroke-linecap="round"/>
<path d="M183.171 4.06787H197.529" stroke="#1E1E1E" stroke-width="4" stroke-linecap="round"/>
<path d="M219.545 4.92786H231.989" stroke="#1E1E1E" stroke-width="4" stroke-linecap="round"/>
<path d="M248.261 4.06748C252.334 4.06748 255.536 3.20789 259.747 3.20789" stroke="#1E1E1E" stroke-width="4" stroke-linecap="round"/>
<path d="M275.063 5.78748H287.507" stroke="#1E1E1E" stroke-width="4" stroke-linecap="round"/>
<path d="M304.736 6.64734C309.8 7.2159 312.901 14.5499 314.521 17.8244C317.155 23.148 317.18 28.2788 317.18 34.1601" stroke="#1E1E1E" stroke-width="4" stroke-linecap="round"/>
<path d="M317.18 44.4773C317.18 48.3233 316.223 51.8793 316.223 55.6543" stroke="#1E1E1E" stroke-width="4" stroke-linecap="round"/>
<path d="M314.308 67.6913V78.8683" stroke="#1E1E1E" stroke-width="4" stroke-linecap="round"/>
<path d="M314.308 95.2039V107.241" stroke="#1E1E1E" stroke-width="4" stroke-linecap="round"/>
<path d="M314.308 122.717V134.753" stroke="#1E1E1E" stroke-width="4" stroke-linecap="round"/>
<path d="M314.308 150.229V165.705" stroke="#1E1E1E" stroke-width="4" stroke-linecap="round"/>
<path d="M315.266 180.321V198.377" stroke="#1E1E1E" stroke-width="4" stroke-linecap="round"/>
<path d="M315.266 215.572V226.749" stroke="#1E1E1E" stroke-width="4" stroke-linecap="round"/>
<path d="M314.308 242.225V256.841" stroke="#1E1E1E" stroke-width="4" stroke-linecap="round"/>
<path d="M314.308 268.878C314.308 271.887 314.308 274.896 314.308 277.906C314.308 280.613 316.223 283.976 316.223 286.933" stroke="#1E1E1E" stroke-width="4" stroke-linecap="round"/>
<path d="M315.266 302.409V313.586" stroke="#1E1E1E" stroke-width="4" stroke-linecap="round"/>
<path d="M315.266 333.361V339.379" stroke="#1E1E1E" stroke-width="4" stroke-linecap="round"/>
<path d="M315.266 347.117V366.032" stroke="#1E1E1E" stroke-width="4" stroke-linecap="round"/>
<path d="M316.223 378.069V394.405" stroke="#1E1E1E" stroke-width="4" stroke-linecap="round"/>
<path d="M315.266 409.021V423.637" stroke="#1E1E1E" stroke-width="4" stroke-linecap="round"/>
<path d="M314.99 440.555C314.99 443.806 310.596 451.97 306.517 451.97" stroke="#1E1E1E" stroke-width="4" stroke-linecap="round"/>
<path d="M293.809 455.141C288.028 455.141 282.569 455.774 276.863 455.774" stroke="#1E1E1E" stroke-width="4" stroke-linecap="round"/>
<path d="M256.388 455.775H266.979" stroke="#1E1E1E" stroke-width="4" stroke-linecap="round"/>
<path d="M233.088 457.044H245.091" stroke="#1E1E1E" stroke-width="4" stroke-linecap="round"/>
<path d="M198.492 457.044H215.437" stroke="#1E1E1E" stroke-width="4" stroke-linecap="round"/>
<path d="M173.074 455.141H182.253" stroke="#1E1E1E" stroke-width="4" stroke-linecap="round"/>
<path d="M141.302 457.044H154.717" stroke="#1E1E1E" stroke-width="4" stroke-linecap="round"/>
<path d="M108.118 455.141H126.475" stroke="#1E1E1E" stroke-width="4" stroke-linecap="round"/>
<path d="M88.3486 455.775H96.1152" stroke="#1E1E1E" stroke-width="4" stroke-linecap="round"/>
<path d="M73.5216 455.775C68.439 455.775 62.7262 455.342 57.9886 457.043" stroke="#1E1E1E" stroke-width="4" stroke-linecap="round"/>
<path d="M46.6919 455.774C40.7405 455.774 35.028 455.141 29.0407 455.141" stroke="#1E1E1E" stroke-width="4" stroke-linecap="round"/>
<path d="M13.5076 452.604C13.4195 451.971 8.92483 446.775 8.21226 446.263C6.4667 445.008 5.74109 439.439 5.74109 437.384" stroke="#1E1E1E" stroke-width="4" stroke-linecap="round"/>
<path d="M2.91686 425.969C2.91686 422.11 2.21082 418.873 2.21082 415.188" stroke="#1E1E1E" stroke-width="4" stroke-linecap="round"/>
<path d="M3.62292 391.089V403.773" stroke="#1E1E1E" stroke-width="4" stroke-linecap="round"/>
<path d="M4.32897 380.942C4.32897 377.631 3.62292 374.699 3.62292 371.429" stroke="#1E1E1E" stroke-width="4" stroke-linecap="round"/>
<path d="M3.62298 360.014C3.62298 358.061 4.73221 349.414 2.91693 348.599" stroke="#1E1E1E" stroke-width="4" stroke-linecap="round"/>
<path d="M2.91693 322.598V333.379" stroke="#1E1E1E" stroke-width="4" stroke-linecap="round"/>
<path d="M5.0351 297.231V309.915" stroke="#1E1E1E" stroke-width="4" stroke-linecap="round"/>
<path d="M5.0351 285.816C5.0351 281.212 5.74114 276.831 5.74114 272.498" stroke="#1E1E1E" stroke-width="4" stroke-linecap="round"/>
<path d="M5.03497 263.619C5.03497 258.766 4.32892 253.685 4.32892 249.033" stroke="#1E1E1E" stroke-width="4" stroke-linecap="round"/>
<path d="M5.03497 235.716C5.03497 231.232 4.32892 226.817 4.32892 222.398" stroke="#1E1E1E" stroke-width="4" stroke-linecap="round"/>
<path d="M5.74114 202.738C5.74114 196.581 5.0351 190.313 5.0351 184.347" stroke="#1E1E1E" stroke-width="4" stroke-linecap="round"/>
<path d="M3.62292 163.419V171.664" stroke="#1E1E1E" stroke-width="4" stroke-linecap="round"/>
<path d="M3.62292 139.32V150.101" stroke="#1E1E1E" stroke-width="4" stroke-linecap="round"/>
<path d="M2.91693 117.124V127.271" stroke="#1E1E1E" stroke-width="4" stroke-linecap="round"/>
<path d="M3.62298 105.075C3.62298 100.973 2.91693 97.0801 2.91693 93.0256" stroke="#1E1E1E" stroke-width="4" stroke-linecap="round"/>
<path d="M2.91693 84.1469C2.91693 79.1621 4.32903 74.3565 4.32903 69.5608" stroke="#1E1E1E" stroke-width="4" stroke-linecap="round"/>
<path d="M3.62298 60.6826C1.50249 60.4445 3.62298 48.7667 3.62298 47.3649" stroke="#1E1E1E" stroke-width="4" stroke-linecap="round"/>
<path d="M3.62292 31.5103V34.0465" stroke="#1E1E1E" stroke-width="4" stroke-linecap="round"/>
<path d="M21.2742 3.60645C19.7444 3.60645 18.2146 3.60645 16.6849 3.60645C15.4617 3.60645 14.6487 4.74669 13.5076 4.8748C11.8952 5.05583 9.20732 8.46108 7.54547 9.31405C3.20843 11.5401 3.62298 18.7031 3.62298 22.6318" stroke="#1E1E1E" stroke-width="4" stroke-linecap="round"/>
</svg>
