<svg width="279" height="62" viewBox="0 0 279 62" fill="none" preserveAspectRatio="none" xmlns="http://www.w3.org/2000/svg">
<path d="M52.4491 3.92073C48.626 3.92073 44.8489 2.9987 41.0331 2.9987C39.0905 2.9987 37.4192 3.45971 35.5969 3.45971C31.7016 3.45971 27.8514 5.76479 23.9091 5.76479C20.8123 5.76479 16.5143 8.10229 14.2749 9.81148C12.0218 11.5312 7.72755 12.9944 6.81527 15.7022C4.87026 21.4754 2.97974 27.5359 2.97974 33.733C2.97974 40.3198 8.52564 48.567 16.3286 50.4576C19.3497 51.1897 21.8192 53.6619 24.9661 54.6324C27.3433 55.3655 28.961 56.4809 31.5198 56.9631C34.9522 57.6099 38.557 57.3985 42.1203 57.3985C56.3018 57.3985 70.3333 57.8595 84.5227 57.8595C107.401 57.8595 130.085 58.3205 153.019 58.3205M153.562 58.3205H192.703C197.679 58.3205 202.768 58.7815 207.652 58.7815H214.72C216.885 58.7815 218.38 58.1331 220.428 57.8851C225.17 57.3106 229.33 57.1776 234.018 57.3984C238.556 57.6123 243.396 56.9374 247.609 56.9374C249.737 56.9374 251.683 56.0154 253.89 56.0154C255.903 56.0154 257.752 55.5544 259.84 55.5544C261.841 55.5544 267.287 52.6533 268.266 51.2004C269.732 49.0241 270.221 45.8028 272.192 44.1315C273.047 43.4068 274.246 42.556 274.246 41.4934C274.246 40.4887 274.512 37.2613 275.061 36.4223C275.765 35.3482 275.877 32.3828 275.877 31.1206C275.877 29.6684 275.418 28.1972 275.333 26.9715C275.21 25.191 274.838 23.1067 273.702 21.5417C272.691 20.1481 272.895 18.5947 271.528 17.2901C270.303 16.1221 269.624 14.589 268.508 13.3715C267.475 12.2455 266.05 11.714 265.004 10.6054C262.701 8.164 259.89 6.09093 256.578 4.84273C249.472 2.16434 240.149 2.99867 232.387 2.99867M69.3013 3.45971H232.387" stroke="#1E1E1E" stroke-width="6" stroke-linecap="round"/>
</svg>
