<svg width="113" height="29" viewBox="0 0 113 29" fill="none" xmlns="http://www.w3.org/2000/svg">
<path d="M74.793 7.03341C69.7889 4.56201 67.366 3.05794 61.7236 2.59147L52.0485 2.59119C50.436 2.59103 46.9251 2.0737 42.7931 2.59136C38.7819 3.09389 34.1599 3.50238 30.0635 4.01559C26.678 4.43974 23.438 5.0199 20.1279 5.73276C12.3787 7.40165 2.6884 8.41645 1.7376 16.3187C1.03908 22.1243 3.59518 22.9345 10.0763 24.9887L10.1774 25.0208C20.1279 27.4057 39.5254 27.4057 50.4177 27.4057C65.304 27.4057 68.9348 27.4057 68.9348 27.4057C68.9348 27.4057 84.0732 27.3916 90.5079 27.4057C97.7083 27.4215 107.502 28.5937 110.878 22.5098C115.24 14.6496 92.3131 6.54903 85.9115 5.73276" stroke="#1E1E1E" stroke-width="3" stroke-linecap="round"/>
</svg>
