<svg width="28" height="27" viewBox="0 0 28 27" fill="none" xmlns="http://www.w3.org/2000/svg">
<path d="M9.48895 8.96973C10.9126 10.3934 12.8319 11.2011 14.2133 12.5824C14.8352 13.2044 15.5751 14.2816 16.4365 14.5277C16.9156 14.6646 18.6925 16.5058 17.826 15.6394" stroke="#1E1E1E" stroke-width="3" stroke-linecap="round"/>
<path d="M10.6006 17.8629C11.8188 16.6446 17.3356 10.1035 18.1039 10.3596" stroke="#1E1E1E" stroke-width="3" stroke-linecap="round"/>
<path d="M13.4636 1.86859C10.7817 1.86859 8.3264 1.79529 5.99641 2.96029C4.46182 3.72758 4.199 5.04574 3.551 6.58473C2.13971 9.93655 1.31726 15.1303 2.93965 18.3751C5.29793 23.0916 13.9655 26.2753 18.8785 24.7506C22.5006 23.6265 24.6673 19.6057 25.647 16.148C27.3474 10.1464 24.0382 7.07991 18.9658 4.22666" stroke="#1E1E1E" stroke-width="3" stroke-linecap="round"/>
</svg>
