<svg width="63" height="29" viewBox="0 0 63 29" fill="none" xmlns="http://www.w3.org/2000/svg">
<path d="M4.2522 7.2113C4.01782 8.05505 3.6897 9.32849 3.26782 11.0316C3.16886 11.6202 3.07251 12.2061 2.97876 12.7894C2.76522 13.529 2.37199 13.8988 1.79907 13.8988C1.4397 13.8988 1.15584 13.7764 0.94751 13.5316C0.770426 13.3233 0.681885 13.0759 0.681885 12.7894C0.681885 11.9457 0.861572 10.917 1.22095 9.70349C1.75741 7.88578 2.04647 6.87797 2.08813 6.68005C2.23918 5.87797 2.39282 5.07589 2.54907 4.2738C2.78345 3.16964 3.03605 2.43526 3.30688 2.07068C3.58293 1.70089 3.92928 1.51599 4.34595 1.51599C4.81991 1.51599 5.16886 1.75557 5.39282 2.23474C5.60116 2.68787 5.82511 3.61495 6.0647 5.01599C6.29386 6.37537 6.63501 7.83891 7.08813 9.40662C7.68188 7.85974 8.23397 6.16182 8.74438 4.31287L9.18188 2.51599C9.46313 1.7712 9.89803 1.3988 10.4866 1.3988C11.0543 1.3988 11.4762 1.8311 11.7522 2.69568C11.8668 3.04464 11.9892 3.69568 12.1194 4.6488C12.4215 6.86755 12.8017 8.7686 13.26 10.3519C13.7236 11.9613 13.9553 12.8363 13.9553 12.9769C13.9553 13.2842 13.8329 13.542 13.5881 13.7504C13.359 13.9379 13.1012 14.0316 12.8147 14.0316C12.247 14.0316 11.8251 13.6254 11.5491 12.8129L11.1116 10.9222C10.8616 9.98474 10.5907 8.63839 10.2991 6.88318C10.0647 7.5811 9.67668 8.67745 9.13501 10.1722L8.66626 11.6097C8.47355 12.1774 8.27303 12.6436 8.0647 13.0082C7.78866 13.4926 7.40324 13.7347 6.90845 13.7347C6.41886 13.7347 6.04386 13.4457 5.78345 12.8676L5.34595 11.4144C4.9397 10.0811 4.57511 8.68005 4.2522 7.2113ZM23.53 13.6176C23.1186 13.6019 22.7045 13.1176 22.2878 12.1644C22.0118 11.5498 21.7748 10.8415 21.5769 10.0394C21.1915 10.0967 20.5613 10.154 19.6863 10.2113C18.8633 10.2686 18.2331 10.3363 17.7956 10.4144C17.5561 10.9873 17.1394 11.8493 16.5456 13.0004C16.3165 13.3754 15.9988 13.5629 15.5925 13.5629C15.3061 13.5629 15.0482 13.4665 14.8191 13.2738C14.5899 13.0759 14.4753 12.8259 14.4753 12.5238C14.4753 12.2582 14.8555 11.3571 15.6159 9.82068C15.543 9.65922 15.5118 9.50818 15.5222 9.36755C15.543 9.11755 15.7956 8.92224 16.28 8.78162C17.0196 7.50037 17.8425 6.17224 18.7488 4.79724C20.0508 2.82328 20.8529 1.8363 21.155 1.8363C21.7279 1.8363 22.1107 2.18266 22.3034 2.87537C22.4076 3.43266 22.5717 4.2686 22.7956 5.38318C23.1133 6.88318 23.5014 8.59932 23.9597 10.5316C23.9962 10.6774 24.129 11.0212 24.3581 11.5629C24.5456 12.0108 24.6394 12.3467 24.6394 12.5707C24.6394 12.8728 24.5248 13.1254 24.2956 13.3285C24.0717 13.5316 23.8165 13.628 23.53 13.6176ZM20.6159 5.60193C20.2097 6.29985 19.6498 7.25037 18.9363 8.45349C19.1706 8.40141 19.5352 8.35974 20.03 8.32849C20.6133 8.29203 20.9805 8.26339 21.1316 8.24255C21.0066 7.56547 20.8347 6.68526 20.6159 5.60193ZM27.4334 9.92224L27.4256 13.2113C27.4256 13.4405 27.3605 13.6514 27.2303 13.8441C27.048 14.1097 26.7824 14.2426 26.4334 14.2426C26.022 14.2426 25.6991 14.0759 25.4647 13.7426C25.2824 13.4821 25.1913 13.2035 25.1913 12.9066C25.1913 11.7504 25.2277 10.0134 25.3006 7.69568C25.3736 5.37797 25.41 3.64099 25.41 2.48474C25.41 2.19307 25.5142 1.94307 25.7225 1.73474C25.9308 1.52641 26.1913 1.42224 26.5038 1.42224C26.8163 1.42224 27.0741 1.52641 27.2772 1.73474C27.4855 1.94307 27.5897 2.19307 27.5897 2.48474C27.5897 2.95349 27.5663 3.5863 27.5194 4.38318C27.4621 5.31026 27.4282 5.94307 27.4178 6.28162C27.7824 5.93787 29.134 4.48995 31.4725 1.93787C31.7121 1.67745 31.9881 1.54724 32.3006 1.54724C32.5975 1.54724 32.8553 1.65141 33.0741 1.85974C33.298 2.06807 33.41 2.32068 33.41 2.61755C33.41 2.94047 32.7902 3.77901 31.5506 5.13318C30.634 6.12797 29.6678 7.10974 28.6522 8.07849C29.2199 8.61495 29.7902 9.15141 30.3631 9.68787C31.0298 10.3024 31.6288 10.8077 32.16 11.2035C32.4256 11.3962 32.7121 11.542 33.0194 11.641C33.5767 11.8181 33.8553 12.1592 33.8553 12.6644C33.8553 12.8884 33.785 13.1045 33.6444 13.3129C33.4517 13.5941 33.1834 13.7347 32.8397 13.7347C32.0949 13.7347 31.1288 13.2478 29.9413 12.2738C29.5871 11.9821 28.7512 11.1983 27.4334 9.92224ZM41.9928 3.36755C41.8887 3.36755 41.7793 3.35193 41.6647 3.32068C40.8209 3.09151 40.0006 2.97693 39.2038 2.97693C38.8131 2.97693 38.3939 3.00818 37.9459 3.07068C37.498 3.13318 37.0215 3.22693 36.5163 3.35193C36.5163 4.04464 36.4928 5.07328 36.4459 6.43787C36.7376 6.41703 37.7558 6.32068 39.5006 6.1488C40.4954 6.04985 41.1256 6.00037 41.3913 6.00037C41.6985 6.00037 41.9616 6.09932 42.1803 6.29724C42.3991 6.48995 42.5084 6.74776 42.5084 7.07068C42.5084 7.69047 42.1777 8.04203 41.5163 8.12537C41.0996 8.15662 40.4772 8.2087 39.6491 8.28162C38.9095 8.36495 37.7949 8.46651 36.3053 8.5863C36.2689 9.24776 36.2506 9.78162 36.2506 10.1879C36.2506 11.2087 36.3105 11.7894 36.4303 11.9301C36.4876 11.9978 36.8157 12.0316 37.4147 12.0316C37.7376 12.0316 38.2246 12.0238 38.8756 12.0082C39.5267 11.9926 40.0137 11.9847 40.3366 11.9847C40.4407 11.9847 40.5944 11.9691 40.7975 11.9379C41.0006 11.9066 41.1517 11.891 41.2506 11.891C41.5527 11.891 41.8105 11.9769 42.0241 12.1488C42.2689 12.3415 42.3913 12.6123 42.3913 12.9613C42.3913 13.5446 42.0866 13.8936 41.4772 14.0082C40.9564 14.1071 39.8756 14.1566 38.235 14.1566C36.5371 14.1566 35.4303 13.9274 34.9147 13.4691C34.347 12.9639 34.0631 11.8702 34.0631 10.1879C34.0631 9.48995 34.1126 8.44307 34.2116 7.04724C34.3157 5.6462 34.3678 4.59932 34.3678 3.90662C34.3678 3.72432 34.3418 3.4561 34.2897 3.10193C34.2376 2.74255 34.2116 2.47172 34.2116 2.28943C34.2116 1.49776 34.5762 1.10193 35.3053 1.10193C35.5345 1.10193 35.7454 1.16703 35.9381 1.29724C36.5423 1.1462 37.1152 1.03422 37.6569 0.961304C38.2038 0.883179 38.7194 0.844116 39.2038 0.844116C40.5163 0.844116 41.5657 0.995158 42.3522 1.29724C42.8314 1.47953 43.0709 1.81026 43.0709 2.28943C43.0709 2.56026 42.9772 2.79985 42.7897 3.00818C42.5814 3.24776 42.3157 3.36755 41.9928 3.36755ZM7.59595 18.1488C7.32511 18.1488 6.58293 18.0759 5.36938 17.9301C5.29647 18.8884 5.26001 20.1618 5.26001 21.7504L5.2522 25.2582C5.94491 25.2426 6.65063 25.2347 7.36938 25.2347C7.68188 25.2347 7.9397 25.3389 8.14282 25.5472C8.35116 25.7556 8.45532 26.0056 8.45532 26.2972C8.45532 26.5889 8.35116 26.8389 8.14282 27.0472C7.9397 27.2504 7.68188 27.3519 7.36938 27.3519C7.07772 27.3519 6.64022 27.3597 6.05688 27.3754C5.47355 27.3858 5.03605 27.391 4.74438 27.391C4.40063 27.391 3.88501 27.4353 3.19751 27.5238C2.51001 27.6176 1.99438 27.6644 1.65063 27.6644C1.33813 27.6644 1.07772 27.5629 0.869385 27.3597C0.66626 27.1514 0.564697 26.9014 0.564697 26.6097C0.564697 26.3181 0.66626 26.0681 0.869385 25.8597C1.07772 25.6514 1.33813 25.5472 1.65063 25.5472C2.0048 25.5472 2.47095 25.5082 3.04907 25.4301C3.03866 24.8155 3.03345 23.6384 3.03345 21.8988C3.03345 20.4821 3.08553 19.1306 3.1897 17.8441L1.49438 17.891C1.18188 17.891 0.918864 17.7894 0.705322 17.5863C0.496989 17.3832 0.392822 17.1306 0.392822 16.8285C0.392822 16.5212 0.496989 16.2712 0.705322 16.0785C0.898031 15.9014 1.13501 15.7998 1.41626 15.7738C1.87459 15.7321 2.67147 15.7113 3.80688 15.7113C4.82772 15.7113 6.14282 15.8207 7.7522 16.0394C8.39282 16.128 8.71313 16.4873 8.71313 17.1176C8.71313 17.4509 8.58293 17.7139 8.32251 17.9066C8.10897 18.0681 7.86678 18.1488 7.59595 18.1488ZM18.9944 18.016C18.5881 18.016 17.9553 17.9873 17.0959 17.9301C16.2678 17.8728 15.635 17.8467 15.1975 17.8519C15.2183 18.4457 15.2887 19.503 15.4084 21.0238C15.5178 22.3676 15.5725 23.4301 15.5725 24.2113C15.5725 24.3884 15.5907 24.6514 15.6272 25.0004C15.6637 25.3493 15.6819 25.6123 15.6819 25.7894C15.6819 26.1801 15.5986 26.5316 15.4319 26.8441C15.2183 27.2452 14.9137 27.4457 14.5178 27.4457C14.2314 27.4457 13.9788 27.3545 13.76 27.1722C13.5152 26.9691 13.3928 26.7139 13.3928 26.4066C13.3928 26.3337 13.4058 26.2243 13.4319 26.0785C13.4579 25.9274 13.4709 25.8129 13.4709 25.7347C13.4709 25.4952 13.4527 25.1332 13.4163 24.6488C13.385 24.1644 13.3694 23.7998 13.3694 23.5551C13.3694 22.8571 13.3147 21.9118 13.2053 20.7191C13.0803 19.3493 13.0074 18.404 12.9866 17.8832H12.5803C11.4189 17.8832 10.497 17.7998 9.8147 17.6332C9.23657 17.4926 8.94751 17.1514 8.94751 16.6097C8.94751 16.3441 9.04126 16.1045 9.22876 15.891C9.44751 15.6358 9.73397 15.5212 10.0881 15.5472C10.2704 15.5577 10.6845 15.6019 11.3303 15.6801C11.8459 15.7373 12.2626 15.766 12.5803 15.766C12.898 15.766 13.372 15.7608 14.0022 15.7504C14.6376 15.7399 15.1142 15.7347 15.4319 15.7347C15.8277 15.7347 16.4215 15.7634 17.2131 15.8207C18.0048 15.8728 18.5986 15.8988 18.9944 15.8988C19.3069 15.8988 19.5673 16.0004 19.7756 16.2035C19.9892 16.4066 20.0959 16.6566 20.0959 16.9535C20.0959 17.2504 19.9892 17.503 19.7756 17.7113C19.5673 17.9144 19.3069 18.016 18.9944 18.016ZM26.4941 23.0238C26.4055 23.0238 26.1868 23.0056 25.8378 22.9691C25.8066 23.6983 25.7909 24.8962 25.7909 26.5629C25.7909 26.8389 25.6946 27.0759 25.5019 27.2738C25.3092 27.4717 25.0644 27.5707 24.7675 27.5707C24.4706 27.5707 24.2232 27.4717 24.0253 27.2738C23.8326 27.0759 23.7363 26.8389 23.7363 26.5629V24.3832C23.7363 23.5759 23.7883 22.3806 23.8925 20.7972C23.9915 19.1879 24.0436 17.9873 24.0488 17.1957C24.054 15.8415 24.4342 15.1931 25.1894 15.2504C25.3665 15.2035 25.6113 15.1696 25.9238 15.1488C26.2363 15.1228 26.6165 15.1097 27.0644 15.1097C28.0852 15.1097 29.0436 15.4405 29.9394 16.1019C30.9342 16.8415 31.4316 17.7426 31.4316 18.8051C31.4316 20.1384 30.9029 21.1983 29.8456 21.9847C28.9081 22.6774 27.7909 23.0238 26.4941 23.0238ZM26.8847 17.1254C26.718 17.1254 26.5696 17.128 26.4394 17.1332C26.3144 17.1332 26.2076 17.1384 26.1191 17.1488C26.1191 17.3936 26.1165 17.7608 26.1113 18.2504C26.1008 18.8285 26.0514 19.7295 25.9628 20.9535C26.2284 20.9952 26.4055 21.016 26.4941 21.016C27.3066 21.016 27.9811 20.8233 28.5175 20.4379C29.0904 20.0264 29.3769 19.4821 29.3769 18.8051C29.3769 18.3623 29.1087 17.9691 28.5722 17.6254C28.0566 17.292 27.4941 17.1254 26.8847 17.1254ZM36.9794 27.8597C35.4377 27.8597 34.1252 27.417 33.0419 26.5316C31.8856 25.5837 31.3075 24.3571 31.3075 22.8519C31.3075 21.0811 31.8622 19.4665 32.9716 18.0082C34.2164 16.3676 35.7841 15.5472 37.6747 15.5472C39.4924 15.5472 40.8544 15.9639 41.7606 16.7972C42.6669 17.6306 43.12 18.8832 43.12 20.5551C43.12 22.3259 42.6096 23.9301 41.5888 25.3676C40.4117 27.029 38.8752 27.8597 36.9794 27.8597ZM37.6747 17.6644C36.5132 17.6644 35.5184 18.2269 34.6903 19.3519C33.9143 20.404 33.5263 21.5707 33.5263 22.8519C33.5263 23.7165 33.8622 24.4196 34.5341 24.9613C35.1799 25.4821 35.995 25.7426 36.9794 25.7426C38.1252 25.7426 39.0809 25.1801 39.8466 24.0551C40.5497 23.029 40.9013 21.8623 40.9013 20.5551C40.9013 19.4613 40.6565 18.7009 40.1669 18.2738C39.6981 17.8676 38.8674 17.6644 37.6747 17.6644ZM46.3666 23.0238C46.278 23.0238 46.0593 23.0056 45.7103 22.9691C45.6791 23.6983 45.6634 24.8962 45.6634 26.5629C45.6634 26.8389 45.5671 27.0759 45.3744 27.2738C45.1817 27.4717 44.9369 27.5707 44.64 27.5707C44.3431 27.5707 44.0957 27.4717 43.8978 27.2738C43.7051 27.0759 43.6088 26.8389 43.6088 26.5629V24.3832C43.6088 23.5759 43.6608 22.3806 43.765 20.7972C43.864 19.1879 43.9161 17.9873 43.9213 17.1957C43.9265 15.8415 44.3067 15.1931 45.0619 15.2504C45.239 15.2035 45.4838 15.1696 45.7963 15.1488C46.1088 15.1228 46.489 15.1097 46.9369 15.1097C47.9577 15.1097 48.9161 15.4405 49.8119 16.1019C50.8067 16.8415 51.3041 17.7426 51.3041 18.8051C51.3041 20.1384 50.7754 21.1983 49.7181 21.9847C48.7806 22.6774 47.6634 23.0238 46.3666 23.0238ZM46.7572 17.1254C46.5905 17.1254 46.4421 17.128 46.3119 17.1332C46.1869 17.1332 46.0801 17.1384 45.9916 17.1488C45.9916 17.3936 45.989 17.7608 45.9838 18.2504C45.9733 18.8285 45.9239 19.7295 45.8353 20.9535C46.1009 20.9952 46.278 21.016 46.3666 21.016C47.1791 21.016 47.8536 20.8233 48.39 20.4379C48.9629 20.0264 49.2494 19.4821 49.2494 18.8051C49.2494 18.3623 48.9812 17.9691 48.4447 17.6254C47.9291 17.292 47.3666 17.1254 46.7572 17.1254Z" fill="#1E1E1E"/>
<path d="M49.7816 11.6249C49.7816 9.61192 49.9167 8.0278 50.6259 6.13635" stroke="#1E1E1E" stroke-width="2" stroke-linecap="round"/>
<path d="M53.0974 14.3546C53.2488 12.9169 55.3458 11.3437 56.5429 10.7451" stroke="#1E1E1E" stroke-width="2" stroke-linecap="round"/>
<path d="M54.9022 17.6358C57.2707 17.6358 59.4307 15.9951 61.7931 15.9951" stroke="#1E1E1E" stroke-width="2" stroke-linecap="round"/>
</svg>
