<svg width="72" height="92" viewBox="0 0 72 92" fill="none" xmlns="http://www.w3.org/2000/svg">
<path d="M23.9579 77.8567C23.9579 73.4636 24.2954 68.6248 21.7679 65.1977C19.8536 62.6021 18.2849 59.6439 16.2929 57.2272C12.5248 52.6557 3.51807 50.5587 3.51807 42.2239C3.51807 36.9828 10.9277 36.6379 13.6569 37.9C15.2456 38.6347 16.2982 40.1438 17.7529 41.182C18.5263 41.7339 20.6963 43.8563 21.2407 43.6565C22.2663 43.2801 24.0019 45.1205 24.8703 45.7403C26.4845 46.8922 25.6697 45.3606 24.8703 44.3337C23.262 42.2677 22.6178 40.1437 21.7476 37.5354C19.3923 30.4757 18.2825 23.004 17.104 15.6034C16.6292 12.6217 15.5629 10.1649 15.5629 7.16408C15.5629 3.29383 17.1672 3.21463 19.7401 3.30906C23.2349 3.43732 27.2304 7.96572 28.7028 11.7484C30.2397 15.6969 30.0969 20.1617 30.5075 24.3814C30.831 27.7057 31.0429 30.7843 31.6025 34.019C31.6741 34.433 32.8542 39.1608 33.103 38.6814C33.5696 37.7825 33.6389 36.5475 33.833 35.4255C34.3598 32.3803 36.8267 29.0116 38.0102 26.3089C39.661 22.5392 42.0543 19.1451 43.4852 15.2648C44.5238 12.4481 47.4455 7.9976 50.0145 7.9976C52.598 7.9976 52.3581 12.6278 52.0423 15.2648C51.4699 20.0437 48.8745 24.3162 48.0476 29.096C47.2094 33.9415 45.4926 38.5652 45.4926 43.6304C45.4926 45.0365 45.8579 43.3697 46.3037 42.7969C48.4181 40.081 51.6542 38.429 54.4553 37.2749C56.0402 36.6219 58.2675 39.0836 58.2675 41.2862C58.2675 42.284 58.0988 49.7056 58.2675 49.6214C59.8 48.8558 61.4542 48.7878 63.0936 48.7878C63.8419 48.7878 66.869 48.1818 67.3924 49.0223C70.3862 53.8294 66.5811 62.1223 63.5599 65.4061C61.6663 67.4644 59.2211 68.8367 57.6592 71.3709C55.7036 74.5441 53.6781 78.1403 51.3529 80.8782C50.2254 82.2058 49.1426 86.2519 49.1426 88.1715" stroke="#1E1E1E" stroke-width="6" stroke-linecap="round"/>
</svg>
