<svg width="69" height="490" viewBox="0 0 69 490" fill="none" xmlns="http://www.w3.org/2000/svg">
<path d="M16.6674 2.0862C16.6674 14.8505 21.5449 25.2007 24.778 36.1704C26.5049 42.0296 30.0596 50.8517 27.2112 57.2224C24.7131 62.8097 18.0225 68.2497 13.8287 68.2497C9.70553 68.2497 3.43301 64.8689 2.90191 56.5541C2.46365 49.6926 4.8075 45.8534 6.61927 40.1803C8.86383 33.1521 11.1233 25.6583 12.184 17.7917C12.548 15.0927 13.4252 12.6012 13.9188 9.9575C14.2969 7.93236 15.4508 6.20524 15.4508 4.09115M53.9518 68.2497C53.9518 75.3413 56.6617 81.0918 58.4579 87.1863C59.4173 90.4416 61.3923 95.343 59.8098 98.8825C58.4218 101.987 54.7047 105.009 52.3747 105.009C50.0839 105.009 46.599 103.131 46.3039 98.5112C46.0604 94.699 47.3626 92.566 48.3692 89.4142C49.6163 85.5094 50.8716 81.346 51.4609 76.9754C51.6631 75.4759 52.1505 74.0917 52.4247 72.6229C52.6348 71.4977 53.2759 70.5382 53.2759 69.3636M17.2195 111.83C17.2195 124.595 22.097 134.945 25.3301 145.915C27.0569 151.774 30.6117 160.596 27.7633 166.967C25.2651 172.554 18.5745 177.994 14.3808 177.994C10.2576 177.994 3.98507 174.613 3.45398 166.298C3.01571 159.437 5.35956 155.598 7.17134 149.924C9.41589 142.896 11.6754 135.402 12.7361 127.536C13.1 124.837 13.9773 122.345 14.4709 119.702C14.849 117.676 16.0029 115.949 16.0029 113.835M54.5042 182.994C54.5042 190.086 57.2141 195.836 59.0103 201.931C59.9698 205.186 61.9447 210.087 60.3622 213.627C58.9743 216.731 55.2571 219.753 52.9271 219.753C50.6363 219.753 47.1514 217.875 46.8563 213.255C46.6128 209.443 47.9151 207.31 48.9216 204.158C50.1687 200.254 51.424 196.09 52.0133 191.72C52.2155 190.22 52.7029 188.836 52.9771 187.367C53.1872 186.242 53.8283 185.282 53.8283 184.108M54.9945 315.978C54.9945 328.742 59.872 339.093 63.1051 350.062C64.832 355.922 68.3867 364.744 65.5383 371.114C63.0402 376.702 56.3495 382.142 52.1558 382.142C48.0326 382.142 41.7601 378.761 41.229 370.446C40.7907 363.585 43.1346 359.745 44.9464 354.072C47.1909 347.044 49.4504 339.55 50.5111 331.684C50.8751 328.985 51.7523 326.493 52.2459 323.85C52.624 321.824 53.7779 320.097 53.7779 317.983M13.437 230.813C13.437 237.905 16.1469 243.655 17.9431 249.75C18.9026 253.005 20.8775 257.907 19.295 261.446C17.9071 264.55 14.1899 267.573 11.8599 267.573C9.56913 267.573 6.08421 265.694 5.78915 261.075C5.54565 257.263 6.84786 255.13 7.85445 251.978C9.10149 248.073 10.3568 243.91 10.9461 239.539C11.1483 238.039 11.6357 236.655 11.91 235.186C12.12 234.061 12.7611 233.102 12.7611 231.927M13.437 306.813C13.437 313.905 16.1469 319.655 17.9431 325.75C18.9026 329.005 20.8775 333.907 19.295 337.446C17.9071 340.55 14.1899 343.573 11.8599 343.573C9.56913 343.573 6.08421 341.694 5.78915 337.075C5.54565 333.263 6.84786 331.13 7.85445 327.978C9.10149 324.073 10.3568 319.91 10.9461 315.539C11.1483 314.039 11.6357 312.655 11.91 311.186C12.12 310.061 12.7611 309.102 12.7611 307.927M33.7076 421.383C33.7076 434.147 38.5851 444.497 41.8182 455.467C43.5451 461.326 47.0998 470.148 44.2514 476.519C41.7533 482.106 35.0626 487.546 30.8689 487.546C26.7457 487.546 20.4732 484.166 19.9421 475.851C19.5038 468.989 21.8477 465.15 23.6595 459.477C25.904 452.449 28.1635 444.955 29.2242 437.088C29.5882 434.389 30.4654 431.898 30.959 429.254C31.3371 427.229 32.491 425.502 32.491 423.388" stroke="white" stroke-opacity="1" stroke-width="4" stroke-linecap="round"/>
</svg>
